Coordinates
version=1
nRows=37
nColumns=24
inDegrees=yes

Units are S.I. units (second, meters, Newtons, ...)
If the header above contains a line with 'inDegrees', this indicates whether rotational values are in degrees (yes) or radians (no).

endheader
time	pelvis_tilt	pelvis_list	pelvis_rotation	pelvis_tx	pelvis_ty	pelvis_tz	hip_flexion_r	hip_adduction_r	hip_rotation_r	knee_angle_r	ankle_angle_r	subtalar_angle_r	mtp_angle_r	hip_flexion_l	hip_adduction_l	hip_rotation_l	knee_angle_l	ankle_angle_l	subtalar_angle_l	mtp_angle_l	lumbar_extension	lumbar_bending	lumbar_rotation
2.200000	11.599643	1.944128	-180.565877	0.220081	0.847563	-1.203680	18.692601	-11.681876	-31.626099	-13.818159	0.044131	10.244143	0.000000	19.997954	-16.691221	-28.495252	-16.724845	1.887515	10.017320	0.000000	0.566880	2.080187	-0.132569
2.205000	11.616594	1.933028	-180.601124	0.220248	0.847512	-1.203641	18.773680	-11.693684	-31.498997	-13.896155	0.080713	10.125755	0.000000	20.044366	-16.687059	-28.436228	-16.778870	1.937041	9.905032	0.000000	0.576399	2.079742	-0.099925
2.210000	11.593129	1.946238	-180.640310	0.220346	0.847515	-1.203599	18.810173	-11.697308	-31.502318	-13.990942	0.095548	10.068833	0.000000	20.044669	-16.717986	-28.433196	-16.839004	1.929366	9.828537	0.000000	0.543472	2.110614	-0.064173
2.215000	11.583767	1.957720	-180.676342	0.220500	0.847479	-1.203597	18.865530	-11.694214	-31.453009	-14.086371	0.124683	10.022497	0.000000	20.077181	-16.749319	-28.383604	-16.927018	1.946304	9.733837	0.000000	0.516948	2.129766	-0.013648
2.220000	11.553245	1.951502	-180.677400	0.220608	0.847449	-1.203676	18.868783	-11.708553	-31.406987	-14.145225	0.115186	10.022438	0.000000	20.102753	-16.769261	-28.338290	-17.033814	1.943209	9.723535	0.000000	0.473495	2.107306	-0.018005
2.225000	11.538533	1.949059	-180.678469	0.220766	0.847393	-1.203736	18.910687	-11.722919	-31.311980	-14.239235	0.173620	9.969580	0.000000	20.169284	-16.792079	-28.262044	-17.183153	2.063195	9.635923	0.000000	0.443822	2.097297	-0.036236
2.230000	11.568557	1.976603	-180.638973	0.221177	0.847347	-1.203912	19.022717	-11.707715	-31.254302	-14.370942	0.235353	9.801545	0.000000	20.340439	-16.850666	-28.105060	-17.361022	2.075257	9.543957	0.000000	0.428384	2.090725	-0.078693
2.235000	11.628074	1.976859	-180.681556	0.221476	0.847258	-1.203918	19.173703	-11.685141	-30.964037	-14.450238	0.159848	9.398971	0.000000	20.489406	-16.851707	-27.873518	-17.480130	2.038358	9.139694	0.000000	0.460179	2.101388	-0.030980
2.240000	11.526446	1.994925	-180.750708	0.221509	0.847284	-1.203930	19.149374	-11.680893	-30.880521	-14.584118	0.216823	9.388454	0.000000	20.457069	-16.924934	-27.847273	-17.662544	2.110589	9.057685	0.000000	0.335493	2.131249	0.044123
2.245000	11.598974	1.911317	-180.752729	0.221733	0.847063	-1.203752	19.328710	-11.814345	-30.761879	-14.751670	0.254651	9.342723	0.000000	20.645618	-16.840644	-27.671186	-17.869579	2.102786	8.768859	0.000000	0.403058	2.061400	0.031947
2.250000	11.541959	1.916737	-180.755386	0.221934	0.846964	-1.203759	19.350370	-11.843393	-30.703316	-14.901558	0.329737	9.305875	0.000000	20.699912	-16.884914	-27.558848	-18.061276	2.193822	8.708590	0.000000	0.312272	2.067475	0.039433
2.255000	11.495628	1.871880	-180.748997	0.222087	0.846793	-1.203672	19.400750	-11.938691	-30.624917	-15.090187	0.425662	9.264839	0.000000	20.766518	-16.857112	-27.393033	-18.271409	2.292361	8.577355	0.000000	0.244326	2.024617	0.039748
2.260000	11.586433	1.885214	-180.748114	0.222681	0.846608	-1.203755	19.637457	-11.943003	-30.460477	-15.285225	0.438172	8.988989	0.000000	21.046424	-16.890036	-27.083204	-18.511861	2.249096	8.128531	0.000000	0.270781	2.027624	0.059017
2.265000	11.591901	1.875038	-180.771675	0.223023	0.846455	-1.203756	19.789863	-11.998035	-30.335313	-15.535499	0.541115	8.918926	0.000000	21.194189	-16.932235	-26.959714	-18.795126	2.336458	8.036771	0.000000	0.229830	2.017233	0.085075
2.270000	11.605813	1.878663	-180.741560	0.223477	0.846305	-1.203861	19.928979	-12.032485	-30.226463	-15.749893	0.645453	8.818059	0.000000	21.396447	-16.978790	-26.758398	-19.064126	2.431109	7.969208	0.000000	0.180497	1.993488	0.071258
2.275000	11.539853	1.878543	-180.760285	0.223510	0.846106	-1.203842	19.969875	-12.084662	-30.116287	-15.981512	0.737966	8.780492	0.000000	21.450763	-17.030730	-26.697620	-19.325250	2.564356	7.863436	0.000000	0.105912	2.002659	0.065590
2.280000	11.541256	1.843176	-180.747321	0.223950	0.845828	-1.203820	20.138641	-12.180638	-29.938608	-16.272059	0.861693	8.679960	0.000000	21.649365	-17.033940	-26.474413	-19.651947	2.689606	7.728189	0.000000	0.043868	1.957510	0.063528
2.285000	11.470361	1.892140	-180.784736	0.224267	0.845640	-1.203959	20.231400	-12.174231	-29.797949	-16.573489	0.980639	8.587302	0.000000	21.760119	-17.175164	-26.353960	-20.013263	2.820223	7.629750	0.000000	-0.085657	2.008618	0.101011
2.290000	11.619102	1.816387	-180.792795	0.224997	0.845197	-1.203776	20.648022	-12.335108	-29.584184	-16.981657	1.055615	8.270901	0.000000	22.157847	-17.085576	-25.956892	-20.304855	2.708206	6.961731	0.000000	-0.023551	1.930995	0.147056
2.295000	11.492840	1.869828	-180.844693	0.225251	0.845040	-1.203888	20.715829	-12.343963	-29.483434	-17.365586	1.234977	8.207823	0.000000	22.209900	-17.239076	-25.836729	-20.683709	2.867051	6.912039	0.000000	-0.218924	1.987155	0.188961
2.300000	11.543580	1.861888	-180.871452	0.225726	0.844564	-1.203811	21.007144	-12.429705	-29.263228	-17.781136	1.377777	8.058454	0.000000	22.502629	-17.287633	-25.613578	-21.087538	2.975263	6.682958	0.000000	-0.224383	1.998206	0.211887
2.305000	11.577196	1.763556	-180.846653	0.226317	0.844063	-1.203629	21.303464	-12.644497	-29.055194	-18.239629	1.560875	7.929642	0.000000	22.802873	-17.231729	-25.379895	-21.524881	3.122547	6.471147	0.000000	-0.269327	1.899249	0.188528
2.310000	11.634494	1.792418	-180.822881	0.227155	0.843639	-1.203807	21.637208	-12.683643	-28.797050	-18.699024	1.684187	7.707762	0.000000	23.173770	-17.343445	-25.071904	-22.000895	3.257933	6.358782	0.000000	-0.327869	1.892955	0.179894
2.315000	11.559669	1.764975	-180.883328	0.227471	0.843186	-1.203714	21.848109	-12.808142	-28.534851	-19.221000	1.920400	7.582564	0.000000	23.331414	-17.414276	-24.958790	-22.481709	3.479459	6.240577	0.000000	-0.468211	1.880840	0.229368
2.320000	11.576423	1.760071	-180.918258	0.228063	0.842654	-1.203679	22.190253	-12.917085	-28.294260	-19.787692	2.109767	7.424191	0.000000	23.634824	-17.499657	-24.773425	-22.982536	3.636964	6.084230	0.000000	-0.550979	1.876183	0.261938
2.325000	11.503617	1.763425	-180.938232	0.228724	0.842117	-1.203753	22.461840	-13.030329	-28.076602	-20.418631	2.316391	7.276605	0.000000	23.889441	-17.614974	-24.566528	-23.563888	3.840788	5.984046	0.000000	-0.729315	1.864521	0.338728
2.330000	11.540846	1.732049	-180.976531	0.229466	0.841358	-1.203734	22.871398	-13.170280	-27.772668	-21.034321	2.496793	7.031383	0.000000	24.265501	-17.694781	-24.375354	-24.157214	4.021862	5.841375	0.000000	-0.792358	1.834192	0.400312
2.335000	11.511766	1.737002	-181.037929	0.229995	0.840649	-1.203672	23.202791	-13.277807	-27.488553	-21.667227	2.706207	6.932822	0.000000	24.550519	-17.825164	-24.223567	-24.746284	4.257456	5.774431	0.000000	-0.908525	1.862732	0.436682
2.340000	11.455184	1.711866	-181.044616	0.230744	0.839906	-1.203705	23.528826	-13.429083	-27.253044	-22.339694	2.992132	6.802968	0.000000	24.872650	-17.930557	-24.032362	-25.408220	4.490273	5.747871	0.000000	-1.084337	1.817549	0.481613
2.345000	11.385961	1.770225	-181.130560	0.231387	0.839168	-1.203880	23.854440	-13.450907	-26.921477	-23.015151	3.200745	6.540035	0.000000	25.146736	-18.174893	-23.963596	-26.058299	4.732846	5.851917	0.000000	-1.271918	1.861501	0.581067
2.350000	11.414746	1.710907	-181.157688	0.232200	0.838155	-1.203744	24.321803	-13.668754	-26.674497	-23.779317	3.526675	6.484062	0.000000	25.562881	-18.249660	-23.810160	-26.737219	5.008442	5.835206	0.000000	-1.352392	1.802957	0.607691
2.355000	11.358173	1.694242	-181.189836	0.232940	0.837194	-1.203782	24.684593	-13.833644	-26.456804	-24.532559	3.833503	6.414748	0.000000	25.892037	-18.391191	-23.717099	-27.428832	5.249282	5.791123	0.000000	-1.529080	1.763023	0.657562
2.360000	11.344303	1.667972	-181.246906	0.233645	0.836087	-1.203693	25.108987	-14.014349	-26.215225	-25.308263	4.127792	6.404499	0.000000	26.268404	-18.540536	-23.647002	-28.176549	5.590778	5.865856	0.000000	-1.637077	1.760786	0.687625
2.365000	11.283785	1.673447	-181.269693	0.234515	0.834971	-1.203876	25.504729	-14.153743	-25.969268	-26.121457	4.473194	6.332547	0.000000	26.637394	-18.740878	-23.545509	-28.937778	5.891837	5.994368	0.000000	-1.841851	1.719714	0.761551
2.370000	11.249321	1.634815	-181.324199	0.235318	0.833775	-1.203832	25.959236	-14.357320	-25.718098	-26.968940	4.834523	6.284424	0.000000	26.998375	-18.888439	-23.482460	-29.679724	6.207695	6.126442	0.000000	-2.001103	1.675980	0.841989
2.375000	11.209767	1.633730	-181.407038	0.236143	0.832456	-1.203846	26.430785	-14.519258	-25.470308	-27.855163	5.205420	6.298766	0.000000	27.362123	-19.105246	-23.448969	-30.439565	6.528296	6.286868	0.000000	-2.164590	1.673195	0.926404
2.380000	11.138300	1.600968	-181.475742	0.237010	0.831065	-1.203861	26.884603	-14.726633	-25.242344	-28.769325	5.597668	6.323980	0.000000	27.696987	-19.290812	-23.418302	-31.210981	6.876999	6.468950	0.000000	-2.368065	1.646166	0.982368
